<?xml version="1.0" encoding="UTF-8" standalone="no"?>
<!DOCTYPE svg PUBLIC "-//W3C//DTD SVG 1.1//EN"
 "http://www.w3.org/Graphics/SVG/1.1/DTD/svg11.dtd">
<!-- Generated by graphviz version 2.46.1 (20210213.1702)
 -->
<!-- Title: G Pages: 1 -->
<svg width="626pt" height="1608pt"
 viewBox="0.00 0.00 626.00 1608.00" xmlns="http://www.w3.org/2000/svg" xmlns:xlink="http://www.w3.org/1999/xlink">
<g id="graph0" class="graph" transform="scale(1 1) rotate(0) translate(4 1604)">
<title>G</title>
<polygon fill="white" stroke="transparent" points="-4,4 -4,-1604 622,-1604 622,4 -4,4"/>
<g id="clust1" class="cluster">
<title>cluster_Global</title>
<path fill="none" stroke="gray" d="M20,-8C20,-8 598,-8 598,-8 604,-8 610,-14 610,-20 610,-20 610,-1580 610,-1580 610,-1586 604,-1592 598,-1592 598,-1592 20,-1592 20,-1592 14,-1592 8,-1586 8,-1580 8,-1580 8,-20 8,-20 8,-14 14,-8 20,-8"/>
<text text-anchor="middle" x="309" y="-1579.2" font-family="Times New Roman,serif" font-size="11.00" fill="gray">Global</text>
</g>
<!-- \\ManageSystem -->
<g id="node1" class="node">
<title>\\ManageSystem</title>
<polygon fill="none" stroke="black" points="575,-646 477,-646 477,-610 575,-610 575,-646"/>
<text text-anchor="middle" x="526" y="-625.2" font-family="Courier,monospace" font-size="11.00">ManageSystem</text>
</g>
<!-- \\PanelModel -->
<g id="node4" class="node">
<title>\\PanelModel</title>
<polygon fill="none" stroke="black" points="347.5,-727 263.5,-727 263.5,-691 347.5,-691 347.5,-727"/>
<text text-anchor="start" x="271.5" y="-712.2" font-family="Courier,monospace" font-size="11.00">«abstract»</text>
<text text-anchor="start" x="271.5" y="-700.2" font-family="Courier,monospace" font-size="11.00">PanelModel</text>
</g>
<!-- \\ManageSystem&#45;&gt;\\PanelModel -->
<g id="edge1" class="edge">
<title>\\ManageSystem&#45;&gt;\\PanelModel</title>
<path fill="none" stroke="black" d="M476.95,-645.18C467.99,-648.42 458.7,-651.8 450,-655 419.05,-666.39 384.45,-679.41 356.98,-689.8"/>
<polygon fill="none" stroke="black" points="355.69,-686.55 347.58,-693.36 358.17,-693.09 355.69,-686.55"/>
</g>
<!-- \\User -->
<g id="node2" class="node">
<title>\\User</title>
<polygon fill="none" stroke="black" points="553,-1510 499,-1510 499,-1474 553,-1474 553,-1510"/>
<text text-anchor="middle" x="526" y="-1489.2" font-family="Courier,monospace" font-size="11.00">User</text>
</g>
<!-- \\AccountAdminManager -->
<g id="node3" class="node">
<title>\\AccountAdminManager</title>
<polygon fill="none" stroke="black" points="598.5,-376 453.5,-376 453.5,-340 598.5,-340 598.5,-376"/>
<text text-anchor="middle" x="526" y="-355.2" font-family="Courier,monospace" font-size="11.00">AccountAdminManager</text>
</g>
<!-- \\AccountAdminManager&#45;&gt;\\PanelModel -->
<g id="edge2" class="edge">
<title>\\AccountAdminManager&#45;&gt;\\PanelModel</title>
<path fill="none" stroke="black" d="M462.11,-376.03C457.75,-378.63 453.65,-381.61 450,-385 360.19,-468.62 323.22,-618.62 311.26,-680.81"/>
<polygon fill="none" stroke="black" points="307.81,-680.22 309.44,-690.69 314.7,-681.49 307.81,-680.22"/>
</g>
<!-- \\PanelModelInterface -->
<g id="node33" class="node">
<title>\\PanelModelInterface</title>
<polygon fill="none" stroke="black" points="161,-727 16,-727 16,-691 161,-691 161,-727"/>
<text text-anchor="middle" x="88.5" y="-706.2" font-family="Courier,monospace" font-size="11.00">PanelModelInterface</text>
</g>
<!-- \\PanelModel&#45;&gt;\\PanelModelInterface -->
<g id="edge3" class="edge">
<title>\\PanelModel&#45;&gt;\\PanelModelInterface</title>
<path fill="none" stroke="black" stroke-dasharray="1,5" d="M263.3,-709C237.22,-709 202.61,-709 171.14,-709"/>
<polygon fill="none" stroke="black" points="171.05,-705.5 161.05,-709 171.05,-712.5 171.05,-705.5"/>
</g>
<!-- \\ManagerHome -->
<g id="node5" class="node">
<title>\\ManagerHome</title>
<polygon fill="none" stroke="black" points="571.5,-322 480.5,-322 480.5,-286 571.5,-286 571.5,-322"/>
<text text-anchor="middle" x="526" y="-301.2" font-family="Courier,monospace" font-size="11.00">ManagerHome</text>
</g>
<!-- \\ManagerHome&#45;&gt;\\PanelModel -->
<g id="edge4" class="edge">
<title>\\ManagerHome&#45;&gt;\\PanelModel</title>
<path fill="none" stroke="black" d="M480.15,-313.15C469.22,-317.14 458.29,-322.85 450,-331 348.07,-431.18 317.5,-611.12 309.26,-680.57"/>
<polygon fill="none" stroke="black" points="305.76,-680.41 308.12,-690.74 312.72,-681.19 305.76,-680.41"/>
</g>
<!-- \\UserTable -->
<g id="node6" class="node">
<title>\\UserTable</title>
<polygon fill="none" stroke="black" points="564.5,-1402 487.5,-1402 487.5,-1366 564.5,-1366 564.5,-1402"/>
<text text-anchor="middle" x="526" y="-1381.2" font-family="Courier,monospace" font-size="11.00">UserTable</text>
</g>
<!-- \\TableEntity -->
<g id="node31" class="node">
<title>\\TableEntity</title>
<polygon fill="none" stroke="black" points="351,-1456 260,-1456 260,-1420 351,-1420 351,-1456"/>
<text text-anchor="middle" x="305.5" y="-1435.2" font-family="Courier,monospace" font-size="11.00">TableEntity</text>
</g>
<!-- \\UserTable&#45;&gt;\\TableEntity -->
<g id="edge5" class="edge">
<title>\\UserTable&#45;&gt;\\TableEntity</title>
<path fill="none" stroke="black" d="M487.44,-1393.28C452.57,-1401.9 400.25,-1414.83 360.83,-1424.57"/>
<polygon fill="none" stroke="black" points="359.97,-1421.18 351.11,-1426.98 361.65,-1427.97 359.97,-1421.18"/>
</g>
<!-- \\GeneralHome -->
<g id="node7" class="node">
<title>\\GeneralHome</title>
<polygon fill="none" stroke="black" points="571.5,-1132 480.5,-1132 480.5,-1096 571.5,-1096 571.5,-1132"/>
<text text-anchor="middle" x="526" y="-1111.2" font-family="Courier,monospace" font-size="11.00">GeneralHome</text>
</g>
<!-- \\GeneralHome&#45;&gt;\\PanelModel -->
<g id="edge6" class="edge">
<title>\\GeneralHome&#45;&gt;\\PanelModel</title>
<path fill="none" stroke="black" d="M480.15,-1104.85C469.22,-1100.86 458.29,-1095.15 450,-1087 348.07,-986.82 317.5,-806.88 309.26,-737.43"/>
<polygon fill="none" stroke="black" points="312.72,-736.81 308.12,-727.26 305.76,-737.59 312.72,-736.81"/>
</g>
<!-- \\ChatMsgTable -->
<g id="node8" class="node">
<title>\\ChatMsgTable</title>
<polygon fill="none" stroke="black" points="575,-1564 477,-1564 477,-1528 575,-1528 575,-1564"/>
<text text-anchor="middle" x="526" y="-1543.2" font-family="Courier,monospace" font-size="11.00">ChatMsgTable</text>
</g>
<!-- \\ChatMsgTable&#45;&gt;\\TableEntity -->
<g id="edge7" class="edge">
<title>\\ChatMsgTable&#45;&gt;\\TableEntity</title>
<path fill="none" stroke="black" d="M476.91,-1530.05C467.86,-1526.66 458.55,-1522.92 450,-1519 412.8,-1501.95 372.38,-1478.67 343.94,-1461.44"/>
<polygon fill="none" stroke="black" points="345.51,-1458.3 335.15,-1456.08 341.87,-1464.27 345.51,-1458.3"/>
</g>
<!-- \\NavigationGeneral -->
<g id="node9" class="node">
<title>\\NavigationGeneral</title>
<polygon fill="none" stroke="black" points="591.5,-1348 460.5,-1348 460.5,-1312 591.5,-1312 591.5,-1348"/>
<text text-anchor="middle" x="526" y="-1327.2" font-family="Courier,monospace" font-size="11.00">NavigationGeneral</text>
</g>
<!-- \\NavigationInterface -->
<g id="node34" class="node">
<title>\\NavigationInterface</title>
<polygon fill="none" stroke="black" points="378,-1267 233,-1267 233,-1231 378,-1231 378,-1267"/>
<text text-anchor="middle" x="305.5" y="-1246.2" font-family="Courier,monospace" font-size="11.00">NavigationInterface</text>
</g>
<!-- \\NavigationGeneral&#45;&gt;\\NavigationInterface -->
<g id="edge8" class="edge">
<title>\\NavigationGeneral&#45;&gt;\\NavigationInterface</title>
<path fill="none" stroke="black" stroke-dasharray="1,5" d="M474.54,-1311.94C466.33,-1308.98 457.92,-1305.92 450,-1303 421.41,-1292.48 389.71,-1280.57 363.38,-1270.62"/>
<polygon fill="none" stroke="black" points="364.53,-1267.31 353.94,-1267.05 362.06,-1273.86 364.53,-1267.31"/>
</g>
<!-- \\GeneralController -->
<g id="node10" class="node">
<title>\\GeneralController</title>
<polygon fill="none" stroke="black" points="591.5,-268 460.5,-268 460.5,-232 591.5,-232 591.5,-268"/>
<text text-anchor="middle" x="526" y="-247.2" font-family="Courier,monospace" font-size="11.00">GeneralController</text>
</g>
<!-- \\Controller -->
<g id="node28" class="node">
<title>\\Controller</title>
<polygon fill="none" stroke="black" points="347.5,-160 263.5,-160 263.5,-124 347.5,-124 347.5,-160"/>
<text text-anchor="start" x="271.5" y="-145.2" font-family="Courier,monospace" font-size="11.00">«abstract»</text>
<text text-anchor="start" x="271.5" y="-133.2" font-family="Courier,monospace" font-size="11.00">Controller</text>
</g>
<!-- \\GeneralController&#45;&gt;\\Controller -->
<g id="edge9" class="edge">
<title>\\GeneralController&#45;&gt;\\Controller</title>
<path fill="none" stroke="black" d="M471.29,-231.91C464.06,-229.11 456.79,-226.11 450,-223 412.8,-205.95 372.38,-182.67 343.94,-165.44"/>
<polygon fill="none" stroke="black" points="345.51,-162.3 335.15,-160.08 341.87,-168.27 345.51,-162.3"/>
</g>
<!-- \\AdminHome -->
<g id="node11" class="node">
<title>\\AdminHome</title>
<polygon fill="none" stroke="black" points="564.5,-1078 487.5,-1078 487.5,-1042 564.5,-1042 564.5,-1078"/>
<text text-anchor="middle" x="526" y="-1057.2" font-family="Courier,monospace" font-size="11.00">AdminHome</text>
</g>
<!-- \\AdminHome&#45;&gt;\\PanelModel -->
<g id="edge10" class="edge">
<title>\\AdminHome&#45;&gt;\\PanelModel</title>
<path fill="none" stroke="black" d="M487.45,-1052.89C474.34,-1048.86 460.33,-1042.62 450,-1033 360.19,-949.38 323.22,-799.38 311.26,-737.19"/>
<polygon fill="none" stroke="black" points="314.7,-736.51 309.44,-727.31 307.81,-737.78 314.7,-736.51"/>
</g>
<!-- \\Form -->
<g id="node12" class="node">
<title>\\Form</title>
<polygon fill="none" stroke="black" points="553,-1024 499,-1024 499,-988 553,-988 553,-1024"/>
<text text-anchor="middle" x="526" y="-1003.2" font-family="Courier,monospace" font-size="11.00">Form</text>
</g>
<!-- \\CustomerMessages -->
<g id="node13" class="node">
<title>\\CustomerMessages</title>
<polygon fill="none" stroke="black" points="588.5,-808 463.5,-808 463.5,-772 588.5,-772 588.5,-808"/>
<text text-anchor="middle" x="526" y="-787.2" font-family="Courier,monospace" font-size="11.00">CustomerMessages</text>
</g>
<!-- \\CustomerMessages&#45;&gt;\\PanelModel -->
<g id="edge11" class="edge">
<title>\\CustomerMessages&#45;&gt;\\PanelModel</title>
<path fill="none" stroke="black" d="M474.54,-771.94C466.33,-768.98 457.92,-765.92 450,-763 419.05,-751.61 384.45,-738.59 356.98,-728.2"/>
<polygon fill="none" stroke="black" points="358.17,-724.91 347.58,-724.64 355.69,-731.45 358.17,-724.91"/>
</g>
<!-- \\Login -->
<g id="node14" class="node">
<title>\\Login</title>
<polygon fill="none" stroke="black" points="553,-754 499,-754 499,-718 553,-718 553,-754"/>
<text text-anchor="middle" x="526" y="-733.2" font-family="Courier,monospace" font-size="11.00">Login</text>
</g>
<!-- \\Login&#45;&gt;\\PanelModel -->
<g id="edge12" class="edge">
<title>\\Login&#45;&gt;\\PanelModel</title>
<path fill="none" stroke="black" d="M498.64,-732.74C463.89,-728.45 402,-720.8 357.85,-715.35"/>
<polygon fill="none" stroke="black" points="358.23,-711.87 347.88,-714.11 357.37,-718.81 358.23,-711.87"/>
</g>
<!-- \\NavigationCustomer -->
<g id="node15" class="node">
<title>\\NavigationCustomer</title>
<polygon fill="none" stroke="black" points="595,-1240 457,-1240 457,-1204 595,-1204 595,-1240"/>
<text text-anchor="middle" x="526" y="-1219.2" font-family="Courier,monospace" font-size="11.00">NavigationCustomer</text>
</g>
<!-- \\NavigationCustomer&#45;&gt;\\NavigationInterface -->
<g id="edge13" class="edge">
<title>\\NavigationCustomer&#45;&gt;\\NavigationInterface</title>
<path fill="none" stroke="black" stroke-dasharray="1,5" d="M456.76,-1230.43C435.16,-1233.1 411.04,-1236.08 388.57,-1238.86"/>
<polygon fill="none" stroke="black" points="387.87,-1235.42 378.37,-1240.12 388.73,-1242.37 387.87,-1235.42"/>
</g>
<!-- \\NavigationManager -->
<g id="node16" class="node">
<title>\\NavigationManager</title>
<polygon fill="none" stroke="black" points="591.5,-1186 460.5,-1186 460.5,-1150 591.5,-1150 591.5,-1186"/>
<text text-anchor="middle" x="526" y="-1165.2" font-family="Courier,monospace" font-size="11.00">NavigationManager</text>
</g>
<!-- \\NavigationManager&#45;&gt;\\NavigationInterface -->
<g id="edge14" class="edge">
<title>\\NavigationManager&#45;&gt;\\NavigationInterface</title>
<path fill="none" stroke="black" stroke-dasharray="1,5" d="M474.54,-1186.06C466.33,-1189.02 457.92,-1192.08 450,-1195 421.41,-1205.52 389.71,-1217.43 363.38,-1227.38"/>
<polygon fill="none" stroke="black" points="362.06,-1224.14 353.94,-1230.95 364.53,-1230.69 362.06,-1224.14"/>
</g>
<!-- \\Calculator -->
<g id="node17" class="node">
<title>\\Calculator</title>
<polygon fill="none" stroke="black" points="568,-700 484,-700 484,-664 568,-664 568,-700"/>
<text text-anchor="middle" x="526" y="-679.2" font-family="Courier,monospace" font-size="11.00">Calculator</text>
</g>
<!-- \\Calculator&#45;&gt;\\PanelModel -->
<g id="edge15" class="edge">
<title>\\Calculator&#45;&gt;\\PanelModel</title>
<path fill="none" stroke="black" d="M483.9,-687.08C448.16,-691.5 396.2,-697.92 357.75,-702.67"/>
<polygon fill="none" stroke="black" points="357.28,-699.2 347.78,-703.9 358.14,-706.15 357.28,-699.2"/>
</g>
<!-- \\CountyTable -->
<g id="node18" class="node">
<title>\\CountyTable</title>
<polygon fill="none" stroke="black" points="571.5,-1456 480.5,-1456 480.5,-1420 571.5,-1420 571.5,-1456"/>
<text text-anchor="middle" x="526" y="-1435.2" font-family="Courier,monospace" font-size="11.00">CountyTable</text>
</g>
<!-- \\CountyTable&#45;&gt;\\TableEntity -->
<g id="edge16" class="edge">
<title>\\CountyTable&#45;&gt;\\TableEntity</title>
<path fill="none" stroke="black" d="M480.26,-1438C445.79,-1438 397.98,-1438 361.23,-1438"/>
<polygon fill="none" stroke="black" points="361.18,-1434.5 351.18,-1438 361.18,-1441.5 361.18,-1434.5"/>
</g>
<!-- \\AccountAdminCustomer -->
<g id="node19" class="node">
<title>\\AccountAdminCustomer</title>
<polygon fill="none" stroke="black" points="602,-538 450,-538 450,-502 602,-502 602,-538"/>
<text text-anchor="middle" x="526" y="-517.2" font-family="Courier,monospace" font-size="11.00">AccountAdminCustomer</text>
</g>
<!-- \\AccountAdminCustomer&#45;&gt;\\PanelModel -->
<g id="edge17" class="edge">
<title>\\AccountAdminCustomer&#45;&gt;\\PanelModel</title>
<path fill="none" stroke="black" d="M465.87,-538.04C460.31,-540.68 454.93,-543.66 450,-547 395.24,-584.12 347.92,-646.82 323.71,-682.34"/>
<polygon fill="none" stroke="black" points="320.73,-680.51 318.07,-690.76 326.55,-684.41 320.73,-680.51"/>
</g>
<!-- \\HelperHTML -->
<g id="node20" class="node">
<title>\\HelperHTML</title>
<polygon fill="none" stroke="black" points="568,-592 484,-592 484,-556 568,-556 568,-592"/>
<text text-anchor="middle" x="526" y="-571.2" font-family="Courier,monospace" font-size="11.00">HelperHTML</text>
</g>
<!-- \\CustomerMyAccount -->
<g id="node21" class="node">
<title>\\CustomerMyAccount</title>
<polygon fill="none" stroke="black" points="591.5,-430 460.5,-430 460.5,-394 591.5,-394 591.5,-430"/>
<text text-anchor="middle" x="526" y="-409.2" font-family="Courier,monospace" font-size="11.00">CustomerMyAccount</text>
</g>
<!-- \\CustomerMyAccount&#45;&gt;\\PanelModel -->
<g id="edge18" class="edge">
<title>\\CustomerMyAccount&#45;&gt;\\PanelModel</title>
<path fill="none" stroke="black" d="M462.74,-430.11C458.19,-432.7 453.87,-435.65 450,-439 372.17,-506.43 329.89,-626.72 313.98,-681.02"/>
<polygon fill="none" stroke="black" points="310.6,-680.09 311.23,-690.67 317.34,-682.01 310.6,-680.09"/>
</g>
<!-- \\CustomerController -->
<g id="node22" class="node">
<title>\\CustomerController</title>
<polygon fill="none" stroke="black" points="595,-214 457,-214 457,-178 595,-178 595,-214"/>
<text text-anchor="middle" x="526" y="-193.2" font-family="Courier,monospace" font-size="11.00">CustomerController</text>
</g>
<!-- \\CustomerController&#45;&gt;\\Controller -->
<g id="edge19" class="edge">
<title>\\CustomerController&#45;&gt;\\Controller</title>
<path fill="none" stroke="black" d="M456.76,-179.14C424.73,-171.22 387.19,-161.94 357.65,-154.64"/>
<polygon fill="none" stroke="black" points="358.1,-151.15 347.55,-152.15 356.42,-157.94 358.1,-151.15"/>
</g>
<!-- \\UnderConstruction -->
<g id="node23" class="node">
<title>\\UnderConstruction</title>
<polygon fill="none" stroke="black" points="591.5,-970 460.5,-970 460.5,-934 591.5,-934 591.5,-970"/>
<text text-anchor="middle" x="526" y="-949.2" font-family="Courier,monospace" font-size="11.00">UnderConstruction</text>
</g>
<!-- \\UnderConstruction&#45;&gt;\\PanelModel -->
<g id="edge20" class="edge">
<title>\\UnderConstruction&#45;&gt;\\PanelModel</title>
<path fill="none" stroke="black" d="M463.85,-933.87C458.94,-931.27 454.25,-928.33 450,-925 383.82,-873.11 337.82,-781.94 317.78,-736.45"/>
<polygon fill="none" stroke="black" points="320.97,-735 313.79,-727.2 314.54,-737.77 320.97,-735"/>
</g>
<!-- \\CustomerHome -->
<g id="node24" class="node">
<title>\\CustomerHome</title>
<polygon fill="none" stroke="black" points="575,-916 477,-916 477,-880 575,-880 575,-916"/>
<text text-anchor="middle" x="526" y="-895.2" font-family="Courier,monospace" font-size="11.00">CustomerHome</text>
</g>
<!-- \\CustomerHome&#45;&gt;\\PanelModel -->
<g id="edge21" class="edge">
<title>\\CustomerHome&#45;&gt;\\PanelModel</title>
<path fill="none" stroke="black" d="M476.85,-884.72C467.52,-881.05 458.13,-876.51 450,-871 395.24,-833.88 347.92,-771.18 323.71,-735.66"/>
<polygon fill="none" stroke="black" points="326.55,-733.59 318.07,-727.24 320.73,-737.49 326.55,-733.59"/>
</g>
<!-- \\ManagerController -->
<g id="node25" class="node">
<title>\\ManagerController</title>
<polygon fill="none" stroke="black" points="591.5,-106 460.5,-106 460.5,-70 591.5,-70 591.5,-106"/>
<text text-anchor="middle" x="526" y="-85.2" font-family="Courier,monospace" font-size="11.00">ManagerController</text>
</g>
<!-- \\ManagerController&#45;&gt;\\Controller -->
<g id="edge22" class="edge">
<title>\\ManagerController&#45;&gt;\\Controller</title>
<path fill="none" stroke="black" d="M460.33,-103.98C427.54,-112.09 388.29,-121.79 357.64,-129.36"/>
<polygon fill="none" stroke="black" points="356.47,-126.05 347.6,-131.84 358.15,-132.84 356.47,-126.05"/>
</g>
<!-- \\NavigationAdmin -->
<g id="node26" class="node">
<title>\\NavigationAdmin</title>
<polygon fill="none" stroke="black" points="585,-1294 467,-1294 467,-1258 585,-1258 585,-1294"/>
<text text-anchor="middle" x="526" y="-1273.2" font-family="Courier,monospace" font-size="11.00">NavigationAdmin</text>
</g>
<!-- \\NavigationAdmin&#45;&gt;\\NavigationInterface -->
<g id="edge23" class="edge">
<title>\\NavigationAdmin&#45;&gt;\\NavigationInterface</title>
<path fill="none" stroke="black" stroke-dasharray="1,5" d="M466.73,-1268.8C442.74,-1265.83 414.51,-1262.35 388.49,-1259.13"/>
<polygon fill="none" stroke="black" points="388.61,-1255.62 378.26,-1257.87 387.76,-1262.57 388.61,-1255.62"/>
</g>
<!-- \\ManageUsers -->
<g id="node27" class="node">
<title>\\ManageUsers</title>
<polygon fill="none" stroke="black" points="571.5,-862 480.5,-862 480.5,-826 571.5,-826 571.5,-862"/>
<text text-anchor="middle" x="526" y="-841.2" font-family="Courier,monospace" font-size="11.00">ManageUsers</text>
</g>
<!-- \\ManageUsers&#45;&gt;\\PanelModel -->
<g id="edge24" class="edge">
<title>\\ManageUsers&#45;&gt;\\PanelModel</title>
<path fill="none" stroke="black" d="M480.42,-830.43C470.17,-826.64 459.5,-822.13 450,-817 406.56,-793.53 361.95,-757.77 334.24,-733.9"/>
<polygon fill="none" stroke="black" points="336.39,-731.13 326.55,-727.21 331.79,-736.41 336.39,-731.13"/>
</g>
<!-- \\ControllerInterface -->
<g id="node35" class="node">
<title>\\ControllerInterface</title>
<polygon fill="none" stroke="black" points="161,-160 16,-160 16,-124 161,-124 161,-160"/>
<text text-anchor="middle" x="88.5" y="-139.2" font-family="Courier,monospace" font-size="11.00">ControllerInterface</text>
</g>
<!-- \\Controller&#45;&gt;\\ControllerInterface -->
<g id="edge25" class="edge">
<title>\\Controller&#45;&gt;\\ControllerInterface</title>
<path fill="none" stroke="black" stroke-dasharray="1,5" d="M263.3,-142C237.22,-142 202.61,-142 171.14,-142"/>
<polygon fill="none" stroke="black" points="171.05,-138.5 161.05,-142 171.05,-145.5 171.05,-138.5"/>
</g>
<!-- \\Session -->
<g id="node29" class="node">
<title>\\Session</title>
<polygon fill="none" stroke="black" points="558,-160 494,-160 494,-124 558,-124 558,-160"/>
<text text-anchor="middle" x="526" y="-139.2" font-family="Courier,monospace" font-size="11.00">Session</text>
</g>
<!-- \\ManagerMyAccount -->
<g id="node30" class="node">
<title>\\ManagerMyAccount</title>
<polygon fill="none" stroke="black" points="588.5,-484 463.5,-484 463.5,-448 588.5,-448 588.5,-484"/>
<text text-anchor="middle" x="526" y="-463.2" font-family="Courier,monospace" font-size="11.00">ManagerMyAccount</text>
</g>
<!-- \\ManagerMyAccount&#45;&gt;\\PanelModel -->
<g id="edge26" class="edge">
<title>\\ManagerMyAccount&#45;&gt;\\PanelModel</title>
<path fill="none" stroke="black" d="M463.85,-484.13C458.94,-486.73 454.25,-489.67 450,-493 383.82,-544.89 337.82,-636.06 317.78,-681.55"/>
<polygon fill="none" stroke="black" points="314.54,-680.23 313.79,-690.8 320.97,-683 314.54,-680.23"/>
</g>
<!-- \\AdminController -->
<g id="node32" class="node">
<title>\\AdminController</title>
<polygon fill="none" stroke="black" points="585,-52 467,-52 467,-16 585,-16 585,-52"/>
<text text-anchor="middle" x="526" y="-31.2" font-family="Courier,monospace" font-size="11.00">AdminController</text>
</g>
<!-- \\AdminController&#45;&gt;\\Controller -->
<g id="edge27" class="edge">
<title>\\AdminController&#45;&gt;\\Controller</title>
<path fill="none" stroke="black" d="M471.29,-52.09C464.06,-54.89 456.79,-57.89 450,-61 412.8,-78.05 372.38,-101.33 343.94,-118.56"/>
<polygon fill="none" stroke="black" points="341.87,-115.73 335.15,-123.92 345.51,-121.7 341.87,-115.73"/>
</g>
</g>
</svg>
